<?xml version="1.0" standalone="no"?>
<!DOCTYPE svg PUBLIC "-//W3C//DTD SVG 20010904//EN"
 "http://www.w3.org/TR/2001/REC-SVG-20010904/DTD/svg10.dtd">
<svg version="1.0" xmlns="http://www.w3.org/2000/svg"
 width="2608.000000pt" height="1238.000000pt" viewBox="0 0 2608.000000 1238.000000"
 preserveAspectRatio="xMidYMid meet">

<g transform="translate(0.000000,1238.000000) scale(0.100000,-0.100000)"
fill="#000000" stroke="none">
<path d="M7348 11921 c-31 -10 -72 -28 -91 -40 -52 -32 -116 -106 -145 -169
l-27 -57 -3 -1848 c-2 -1760 -1 -1848 15 -1843 10 3 74 19 143 36 172 43 1032
330 1268 424 106 42 311 128 456 191 364 158 547 233 712 293 723 262 1340
313 2084 171 174 -33 398 -55 453 -45 l37 7 -2 1302 -3 1302 -32 67 c-40 85
-106 151 -191 191 l-67 32 -2275 2 c-2174 2 -2278 1 -2332 -16z m4197 -61
c115 -5 230 -15 269 -24 141 -33 245 -114 285 -220 39 -105 43 -178 48 -926 5
-753 -4 -1148 -31 -1271 -26 -122 -75 -186 -159 -211 -50 -14 -256 -13 -377 2
-132 17 -830 25 -994 11 -261 -22 -445 -61 -761 -162 -324 -104 -527 -183
-955 -374 -445 -198 -978 -390 -1295 -466 -123 -29 -239 -31 -285 -3 -67 39
-100 113 -121 274 -16 118 -24 2421 -10 2745 13 313 31 383 127 485 91 97 186
128 429 139 243 11 3590 12 3830 1z"/>
<path d="M14135 11926 c-100 -32 -174 -86 -223 -164 -62 -97 -62 -99 -62 -719
l0 -564 158 162 c490 503 1022 767 1727 855 208 26 482 24 602 -3 414 -97 739
-402 1008 -948 98 -198 140 -299 270 -651 108 -290 158 -403 200 -453 29 -33
29 -33 99 -29 144 10 393 116 603 257 143 96 242 178 391 322 l112 109 0 760
c0 727 -1 763 -19 816 -41 116 -136 209 -250 244 -62 20 -96 20 -2320 19
-1793 0 -2264 -3 -2296 -13z m4395 -120 c202 -47 289 -137 328 -339 13 -67 16
-167 16 -562 1 -678 -8 -719 -195 -902 -223 -216 -453 -343 -624 -343 -69 0
-141 36 -193 96 -52 60 -124 205 -237 479 -232 562 -362 765 -749 1175 -173
183 -205 232 -184 277 28 60 199 112 432 132 56 5 378 8 716 7 546 -3 623 -5
690 -20z m-3656 -46 c173 -37 224 -78 180 -145 -22 -34 -135 -109 -355 -235
-393 -226 -512 -268 -596 -213 -54 36 -90 181 -74 298 23 163 121 267 289 310
88 22 425 13 556 -15z"/>
<path d="M22374 11849 c251 -237 411 -510 581 -984 64 -181 206 -465 313 -625
411 -620 978 -925 1662 -896 85 4 196 13 245 21 221 36 270 39 364 27 50 -7
129 -25 176 -41 l85 -28 0 1111 c0 721 -4 1133 -11 1175 -21 132 -97 234 -217
293 l-67 33 -1614 3 -1614 2 97 -91z"/>
<path d="M21558 11369 c-72 -17 -159 -70 -236 -144 -136 -129 -229 -274 -443
-687 -78 -150 -168 -321 -200 -380 l-59 -107 2 -1494 3 -1493 38 -76 c43 -88
102 -146 187 -187 l55 -26 2287 -3 c2275 -2 2287 -2 2341 18 118 44 196 122
240 237 21 57 22 71 25 596 2 295 1 537 -1 537 -3 0 -36 -15 -73 -34 -214
-105 -564 -180 -904 -193 -374 -13 -699 53 -1015 207 -232 113 -404 240 -606
447 -294 302 -541 706 -742 1213 -90 228 -129 347 -177 550 -113 473 -162 627
-242 767 -112 196 -301 295 -480 252z m179 -321 c85 -40 163 -137 224 -279 41
-94 69 -185 154 -502 100 -376 172 -568 330 -892 135 -276 262 -487 408 -680
72 -94 276 -307 397 -412 231 -204 584 -378 925 -458 250 -59 401 -67 955 -55
243 6 290 -3 348 -63 111 -115 122 -419 20 -580 -51 -79 -131 -125 -272 -154
-73 -15 -260 -17 -1951 -20 -2127 -5 -2132 -4 -2279 66 -54 27 -131 107 -156
164 -68 152 -72 266 -67 1547 4 1184 3 1154 67 1316 44 109 237 489 314 618
211 350 395 471 583 384z"/>
<path d="M15780 10850 c-120 -25 -287 -140 -410 -283 -153 -177 -276 -380
-493 -812 -284 -565 -500 -900 -791 -1225 -59 -65 -136 -144 -172 -176 l-65
-57 3 -621 3 -621 31 -65 c38 -79 98 -141 179 -183 l60 -32 2310 0 2310 0 63
33 c81 42 137 101 176 182 l31 65 3 567 2 567 -73 -33 c-397 -181 -792 -200
-1217 -59 -463 154 -726 412 -891 873 -53 151 -111 391 -154 640 -61 352 -120
548 -231 759 -94 179 -228 343 -335 411 -100 65 -232 92 -339 70z"/>
<path d="M465 5595 c-5 -2 -22 -6 -37 -9 -14 -3 -40 -18 -57 -32 l-31 -26 0
-1302 c0 -1450 -6 -1332 69 -1363 47 -20 211 -28 286 -14 81 15 105 42 129
149 11 45 22 82 25 82 3 0 17 -16 30 -36 100 -146 293 -232 496 -221 324 19
544 264 621 692 24 137 25 432 1 565 -41 222 -116 378 -243 506 -135 137 -282
194 -499 194 -131 0 -210 -17 -305 -65 -38 -19 -72 -35 -75 -35 -3 0 -5 191
-5 425 l0 426 -26 24 c-14 13 -48 28 -75 34 -45 10 -279 14 -304 6z m811
-1268 c81 -41 134 -118 169 -243 22 -76 32 -379 16 -479 -24 -160 -75 -260
-155 -310 -45 -27 -58 -30 -130 -30 -64 0 -90 5 -124 23 -52 28 -113 87 -153
150 l-29 46 0 403 0 403 40 20 c112 57 273 65 366 17z"/>
<path d="M5559 5585 c-25 -8 -54 -24 -65 -36 -19 -21 -19 -54 -21 -1318 -2
-1020 0 -1301 10 -1321 21 -42 77 -62 190 -67 187 -10 254 20 277 120 7 29 16
69 22 90 l9 39 31 -46 c141 -214 471 -289 726 -164 81 39 210 164 261 251 90
153 139 352 148 597 14 396 -67 663 -261 855 -140 139 -282 195 -495 195 -153
0 -208 -14 -373 -98 -5 -2 -8 182 -8 410 0 309 -3 419 -13 438 -25 50 -77 65
-242 67 -109 2 -163 -1 -196 -12z m814 -1241 c102 -35 180 -141 214 -294 23
-104 23 -395 0 -500 -43 -192 -137 -290 -279 -290 -96 0 -197 63 -268 166
l-30 43 0 410 0 411 43 21 c94 49 232 63 320 33z"/>
<path d="M2775 4765 c-220 -34 -380 -107 -420 -192 -16 -34 -16 -38 4 -100 24
-72 73 -154 119 -197 38 -35 59 -33 191 19 217 84 456 88 551 9 48 -41 63 -79
68 -180 l5 -91 -137 -7 c-260 -14 -432 -50 -586 -123 -78 -38 -109 -59 -171
-122 -118 -118 -158 -228 -159 -427 0 -116 24 -227 66 -305 36 -65 121 -144
188 -175 154 -70 392 -70 553 2 77 34 174 105 225 165 l42 50 23 -92 c16 -67
30 -100 50 -122 l28 -29 120 5 c173 8 312 48 329 94 4 9 2 41 -4 72 -27 152
-32 246 -39 761 -7 536 -8 557 -29 614 -46 123 -99 193 -200 260 -80 52 -183
91 -299 111 -105 18 -403 19 -518 0z m513 -1188 c2 -90 0 -103 -22 -141 -35
-60 -117 -133 -184 -164 -119 -54 -253 -26 -293 61 -45 100 -3 209 105 272 75
43 221 74 336 71 l55 -1 3 -98z"/>
<path d="M4968 4757 c-31 -13 -75 -39 -97 -56 -35 -28 -103 -110 -138 -167
-13 -22 -12 -24 -39 81 -12 48 -27 79 -46 99 l-29 29 -117 -6 c-201 -9 -323
-49 -330 -110 -2 -15 5 -69 14 -120 16 -81 18 -183 23 -843 6 -716 7 -753 25
-773 34 -37 82 -46 251 -46 137 0 166 3 198 19 70 34 67 8 67 674 l0 599 31
39 c43 54 119 109 172 124 31 8 71 10 119 6 161 -15 170 -14 190 20 57 97 76
322 32 380 -43 59 -68 69 -172 72 -83 2 -105 -1 -154 -21z"/>
<path d="M7955 4774 c-222 -33 -376 -92 -445 -170 -29 -34 -32 -42 -28 -85 10
-102 121 -269 178 -269 15 0 72 18 126 39 139 56 242 75 373 69 199 -9 260
-65 261 -239 l0 -86 -132 -7 c-373 -19 -605 -94 -754 -241 -118 -117 -159
-228 -158 -435 0 -139 15 -205 66 -303 82 -154 270 -238 503 -224 179 11 302
65 428 188 75 74 77 76 83 50 21 -107 40 -158 66 -185 l29 -29 117 6 c170 8
312 49 329 94 3 9 -2 63 -12 122 -16 91 -20 188 -25 671 -6 472 -10 574 -23
619 -60 203 -204 332 -437 392 -72 18 -119 22 -300 24 -118 2 -228 1 -245 -1z
m465 -1194 c0 -118 -14 -155 -86 -227 -121 -121 -316 -144 -393 -47 -57 72
-43 193 31 261 64 60 237 109 391 112 l57 1 0 -100z"/>
<path d="M10240 4764 c-123 -33 -237 -100 -331 -196 l-58 -58 -11 57 c-15 73
-35 122 -62 150 -19 20 -31 23 -102 23 -144 0 -325 -40 -361 -80 -18 -19 -17
-23 1 -122 17 -93 19 -177 24 -858 4 -574 8 -760 17 -777 25 -42 94 -58 258
-58 165 0 212 10 245 52 20 25 20 39 20 631 l0 604 44 62 c70 98 153 146 252
146 120 0 192 -50 213 -149 7 -35 11 -254 11 -666 l0 -613 30 -26 c41 -34 81
-41 235 -41 154 0 194 7 235 41 l30 26 0 703 c0 784 -1 802 -65 932 -56 114
-145 183 -280 218 -76 19 -270 19 -345 -1z"/>
<path d="M13495 4774 c-222 -33 -376 -92 -445 -170 -29 -34 -32 -42 -28 -85 6
-61 55 -162 109 -222 49 -57 69 -59 167 -17 141 60 214 75 367 75 128 0 144
-2 188 -24 30 -15 59 -39 75 -64 23 -34 27 -52 30 -137 l4 -97 -133 -7 c-357
-19 -594 -90 -739 -224 -127 -117 -172 -229 -174 -437 -2 -198 34 -306 133
-406 101 -100 250 -147 436 -136 180 11 303 65 427 188 l77 76 16 -76 c31
-140 53 -161 165 -161 139 0 320 41 355 80 18 20 18 23 0 128 -16 92 -19 186
-25 672 -6 486 -9 573 -24 625 -58 207 -200 336 -436 396 -72 18 -119 22 -300
24 -118 2 -228 1 -245 -1z m465 -1194 c0 -118 -14 -155 -86 -227 -147 -146
-384 -141 -425 9 -17 65 11 157 63 205 69 65 221 108 391 112 l57 1 0 -100z"/>
<path d="M16130 4766 c-286 -50 -445 -146 -425 -255 10 -55 72 -174 114 -220
47 -51 70 -52 176 -7 118 49 197 67 326 73 243 12 329 -58 329 -266 l0 -58
-136 -7 c-264 -14 -434 -50 -591 -126 -225 -109 -323 -275 -323 -544 0 -188
43 -309 142 -402 104 -99 195 -129 388 -128 119 0 145 3 215 27 118 39 244
125 296 202 26 38 39 44 39 19 0 -52 35 -159 62 -190 29 -33 32 -34 107 -34
153 0 348 47 370 89 5 9 1 65 -11 136 -17 104 -20 197 -27 685 -7 544 -8 567
-29 631 -59 180 -201 299 -427 360 -68 19 -113 22 -300 25 -151 2 -244 -1
-295 -10z m518 -1184 c3 -85 0 -97 -24 -143 -36 -65 -111 -134 -182 -167 -107
-49 -233 -31 -284 41 -26 36 -35 112 -18 162 15 47 72 111 120 135 79 40 223
69 330 66 l55 -1 3 -93z"/>
<path d="M18327 4756 c-77 -32 -139 -85 -195 -167 -26 -37 -49 -68 -52 -69 -4
0 -12 28 -19 62 -15 73 -44 133 -70 148 -53 28 -312 -1 -408 -45 -51 -23 -53
-26 -53 -62 0 -21 8 -76 16 -123 14 -72 17 -201 21 -830 5 -825 0 -776 71
-808 57 -25 329 -24 396 2 79 30 76 2 76 678 l0 592 27 38 c33 49 108 104 168
125 36 12 65 14 123 8 43 -4 100 -8 127 -8 50 -2 50 -2 73 44 32 65 54 182 50
265 -3 58 -8 77 -30 106 -40 52 -82 68 -180 68 -64 0 -96 -6 -141 -24z"/>
<path d="M19380 4761 c-298 -65 -498 -253 -586 -551 -51 -174 -65 -488 -30
-677 70 -385 272 -610 620 -690 51 -12 119 -17 246 -17 148 0 189 4 265 22
422 105 635 460 612 1022 -20 485 -203 765 -572 876 -81 24 -109 27 -280 30
-158 3 -204 1 -275 -15z m386 -428 c88 -46 149 -141 180 -283 23 -104 23 -386
1 -489 -19 -85 -62 -182 -101 -228 -97 -115 -320 -118 -429 -5 -43 45 -79 115
-104 202 -26 95 -26 455 0 550 40 140 114 235 207 265 65 21 193 15 246 -12z"/>
<path d="M23116 4759 c-156 -38 -303 -144 -369 -266 -42 -79 -67 -191 -67
-302 0 -171 45 -292 143 -389 71 -70 146 -112 313 -177 178 -70 229 -102 254
-158 25 -54 25 -88 0 -136 -51 -101 -233 -116 -430 -35 -129 53 -134 54 -170
36 -66 -36 -150 -176 -153 -255 -4 -103 109 -181 333 -230 138 -30 401 -30
515 1 129 35 219 85 300 166 115 116 164 245 165 428 0 107 -13 175 -51 254
-60 127 -165 212 -359 290 -214 86 -284 131 -309 197 -16 42 -13 78 9 115 30
48 78 65 185 65 76 0 104 -5 180 -33 134 -48 139 -48 177 -9 37 41 81 134 97
207 9 42 8 59 -3 87 -43 101 -253 166 -536 164 -108 0 -165 -5 -224 -20z"/>
<path d="M24675 4774 c-222 -33 -376 -92 -445 -170 -29 -34 -32 -42 -28 -85
10 -100 121 -269 176 -269 14 0 71 18 126 39 143 56 245 75 375 69 199 -9 260
-65 261 -239 l0 -86 -132 -7 c-373 -19 -605 -94 -754 -241 -118 -117 -159
-228 -158 -435 0 -139 15 -205 67 -303 81 -154 268 -238 502 -224 179 11 302
65 428 188 75 74 77 76 83 50 21 -107 40 -158 66 -185 l29 -29 117 6 c170 8
312 49 329 94 3 9 -2 63 -12 122 -16 91 -20 188 -25 671 -6 472 -10 574 -23
619 -60 203 -204 332 -437 392 -72 18 -119 22 -300 24 -118 2 -228 1 -245 -1z
m465 -1194 c0 -118 -14 -155 -86 -227 -121 -121 -316 -144 -393 -47 -57 72
-43 193 31 261 64 60 237 109 391 112 l57 1 0 -100z"/>
<path d="M11291 4751 c-13 -3 -34 -19 -45 -34 -19 -26 -21 -42 -21 -171 0
-155 9 -187 61 -206 14 -6 175 -10 370 -10 189 0 344 -2 344 -5 0 -4 -177
-250 -394 -549 -217 -299 -406 -562 -421 -585 -25 -37 -27 -47 -22 -99 8 -75
42 -182 68 -216 l20 -26 708 0 c694 0 709 0 734 20 31 25 47 91 47 196 0 93
-15 156 -44 183 -21 20 -33 21 -419 23 l-396 3 419 578 420 578 0 59 c0 68
-32 179 -66 233 l-24 37 -658 -1 c-361 -1 -668 -4 -681 -8z"/>
<path d="M20871 4746 c-18 -6 -45 -25 -58 -40 l-24 -29 4 -716 c3 -631 5 -723
20 -779 63 -237 203 -345 467 -359 122 -7 230 15 338 68 71 35 199 133 225
172 25 38 34 34 42 -19 11 -79 34 -140 61 -168 24 -24 34 -26 103 -26 105 0
255 26 319 55 51 23 52 25 52 67 -1 24 -8 84 -17 133 -13 75 -16 213 -20 839
l-4 748 -23 23 c-35 35 -88 45 -241 45 -153 0 -201 -9 -242 -45 l-28 -23 -5
-619 -5 -619 -37 -50 c-45 -61 -125 -118 -188 -134 -52 -14 -138 -7 -180 15
-39 20 -77 69 -90 113 -6 24 -10 262 -10 659 l0 621 -24 29 c-14 16 -42 35
-64 41 -52 16 -326 14 -371 -2z"/>
<path d="M3975 1645 c-90 -19 -129 -39 -186 -92 -94 -88 -129 -193 -129 -389
0 -255 70 -390 240 -459 56 -23 253 -32 328 -16 63 13 142 49 149 68 7 19 -4
59 -22 77 -14 13 -23 11 -83 -17 -63 -30 -74 -32 -177 -32 -103 0 -113 2 -164
30 -101 56 -141 140 -149 313 -11 262 59 384 243 422 75 15 149 7 233 -27 l66
-26 18 23 c11 13 18 35 16 49 -8 69 -222 111 -383 76z"/>
<path d="M4960 1646 c-151 -32 -243 -125 -287 -289 -23 -85 -23 -289 0 -374
39 -148 126 -247 249 -284 100 -31 268 -24 349 13 156 71 229 218 229 458 0
224 -68 373 -201 440 -88 45 -229 60 -339 36z m260 -123 c65 -34 109 -88 136
-169 15 -47 19 -86 18 -194 0 -155 -17 -215 -80 -289 -59 -68 -103 -86 -214
-86 -83 0 -102 3 -145 26 -105 53 -159 176 -159 359 0 137 26 227 85 294 23
26 54 53 70 61 82 43 202 42 289 -2z"/>
<path d="M21345 1645 c-90 -19 -129 -39 -186 -92 -101 -95 -133 -203 -126
-423 3 -112 9 -158 25 -202 60 -167 167 -237 372 -246 128 -5 200 6 270 42 53
26 62 58 30 98 l-20 27 -68 -32 c-63 -30 -74 -32 -177 -32 -101 0 -114 2 -162
27 -100 53 -143 143 -151 316 -11 262 59 384 243 422 75 15 149 7 233 -27 l66
-26 18 23 c11 13 18 35 16 49 -8 69 -222 111 -383 76z"/>
<path d="M24312 1645 c-210 -46 -315 -229 -299 -525 7 -129 33 -217 86 -292
73 -102 179 -148 336 -148 157 0 263 46 336 148 53 75 79 163 86 292 13 238
-53 404 -192 486 -85 49 -231 65 -353 39z m251 -113 c84 -37 138 -113 163
-231 39 -187 -10 -389 -114 -468 -56 -43 -110 -56 -202 -51 -83 5 -138 28
-181 75 -143 153 -126 537 29 647 81 57 211 69 305 28z"/>
<path d="M25353 1646 c-147 -36 -225 -159 -194 -302 11 -50 21 -67 65 -109 42
-42 70 -58 161 -93 161 -62 215 -113 215 -205 0 -49 -27 -97 -73 -131 -24 -18
-43 -21 -120 -21 -83 0 -99 3 -161 32 -37 18 -72 30 -77 27 -5 -3 -16 -19 -24
-35 -21 -39 -8 -61 49 -88 66 -30 120 -40 222 -41 117 0 174 19 234 79 52 53
70 100 70 187 0 156 -66 223 -309 315 -124 47 -165 116 -120 206 33 66 74 88
164 87 50 0 84 -6 119 -22 65 -29 73 -28 93 14 18 36 18 36 -9 59 -30 26 -144
55 -210 54 -24 0 -67 -6 -95 -13z"/>
<path d="M277 1644 c-4 -4 -7 -217 -7 -474 0 -349 3 -469 12 -478 16 -16 80
-16 96 0 9 9 12 110 12 392 l0 380 140 -243 c77 -134 145 -250 151 -257 17
-20 83 -18 101 4 8 9 75 123 149 252 l134 234 3 -379 c2 -288 5 -381 15 -387
19 -12 82 -9 95 4 9 9 12 127 12 469 0 252 -3 464 -6 473 -5 12 -21 16 -68 16
-33 0 -66 -4 -72 -8 -11 -7 -257 -436 -291 -507 -21 -43 -28 -44 -42 -2 -6 17
-74 140 -150 272 l-139 240 -69 3 c-38 1 -72 0 -76 -4z"/>
<path d="M1799 1623 c-45 -118 -329 -912 -329 -920 0 -24 90 -32 108 -10 6 7
28 62 49 122 l39 110 206 3 206 2 41 -117 c23 -65 48 -121 54 -125 14 -9 69
-10 91 -2 9 3 16 14 15 23 0 9 -75 223 -167 476 l-167 460 -68 3 c-65 3 -67 2
-78 -25z m225 -542 c9 -24 16 -45 16 -47 0 -2 -74 -4 -165 -4 -91 0 -165 4
-165 8 0 4 31 97 70 206 38 109 75 216 81 238 l10 40 69 -198 c37 -110 75
-219 84 -243z"/>
<path d="M2577 1643 c-4 -3 -7 -219 -7 -479 0 -517 -4 -484 58 -484 53 0 52
-10 54 393 l3 377 244 -371 c135 -204 251 -377 258 -385 18 -18 97 -18 112 0
8 9 10 144 9 482 l-3 469 -55 0 -55 0 -5 -379 c-4 -321 -7 -376 -18 -352 -7
16 -118 188 -247 382 l-234 354 -54 0 c-29 0 -57 -3 -60 -7z"/>
<path d="M5857 1643 c-4 -3 -7 -219 -7 -479 0 -522 -5 -484 65 -484 18 0 38 6
44 13 7 10 12 132 13 387 l3 374 134 -235 c74 -129 141 -242 149 -251 9 -11
29 -18 53 -18 46 0 36 -13 205 280 l129 225 3 -379 c2 -289 5 -382 15 -388 16
-10 68 -10 85 0 10 7 12 110 10 483 l-3 474 -69 0 -69 0 -94 -165 c-51 -91
-121 -216 -155 -279 l-61 -114 -15 39 c-19 49 -281 506 -296 516 -14 10 -130
10 -139 1z"/>
<path d="M7154 1637 c-3 -8 -4 -180 -2 -383 3 -421 2 -411 94 -493 72 -63 153
-84 302 -79 102 3 125 7 177 31 73 34 109 67 143 132 l27 50 0 375 0 375 -55
0 -55 0 -5 -360 c-6 -404 -5 -399 -80 -454 -55 -40 -117 -55 -203 -49 -80 5
-135 28 -179 75 -51 54 -52 64 -58 438 l-5 350 -48 3 c-33 2 -49 -1 -53 -11z"/>
<path d="M8287 1643 c-4 -3 -7 -216 -7 -473 0 -349 3 -469 12 -478 16 -16 83
-15 97 1 7 10 12 132 13 388 3 373 3 374 22 339 34 -64 467 -715 484 -727 18
-14 80 -17 100 -5 10 7 12 110 10 483 l-3 474 -50 0 -50 0 -5 -380 c-5 -374
-5 -379 -23 -347 -32 58 -469 717 -481 724 -14 10 -110 10 -119 1z"/>
<path d="M9437 1644 c-4 -4 -7 -220 -7 -480 0 -517 -4 -484 58 -484 54 0 52
-19 50 491 l-3 474 -45 3 c-25 2 -49 0 -53 -4z"/>
<path d="M9968 1644 c-5 -4 -8 -220 -8 -480 l0 -472 23 -6 c35 -9 284 -6 366
4 189 25 309 142 342 333 7 42 10 118 7 187 -9 185 -56 292 -162 365 -92 62
-119 68 -351 73 -115 2 -213 0 -217 -4z m437 -126 c128 -67 184 -194 172 -391
-7 -124 -35 -198 -97 -258 -67 -66 -123 -82 -280 -83 l-125 -1 -3 370 c-1 203
0 376 3 384 4 11 33 12 143 9 124 -4 142 -7 187 -30z"/>
<path d="M11271 1628 c-52 -140 -331 -920 -331 -927 0 -19 82 -30 106 -13 5 4
28 59 51 122 l40 115 206 3 c158 2 206 0 210 -10 2 -7 21 -60 42 -118 21 -58
43 -108 49 -112 13 -9 68 -10 90 -2 9 3 16 12 16 20 0 12 -294 835 -326 912
-13 32 -14 32 -79 32 -59 0 -66 -2 -74 -22z m89 -149 c0 -9 34 -112 75 -229
41 -117 75 -214 75 -216 0 -2 -74 -4 -165 -4 -91 0 -165 3 -165 6 0 3 36 109
80 235 44 126 80 235 80 242 0 18 20 -15 20 -34z"/>
<path d="M12058 1644 c-5 -4 -8 -220 -8 -480 l0 -472 23 -6 c35 -9 284 -6 366
4 189 25 309 142 342 333 7 42 10 118 7 187 -9 185 -56 292 -162 365 -92 62
-119 68 -351 73 -115 2 -213 0 -217 -4z m437 -126 c128 -67 184 -193 173 -391
-7 -123 -35 -197 -98 -258 -67 -66 -123 -82 -280 -83 l-125 -1 -3 370 c-1 203
0 376 3 384 4 11 33 12 143 9 124 -4 142 -7 187 -30z"/>
<path d="M13157 1643 c-4 -3 -7 -217 -7 -474 0 -453 1 -469 19 -479 12 -6 115
-10 264 -10 270 0 271 0 265 62 l-3 33 -212 3 -213 2 0 175 0 175 190 0 190 0
6 26 c4 14 2 36 -5 50 l-11 24 -185 0 -185 0 0 160 0 160 210 0 210 0 6 25 c3
14 3 36 0 50 l-6 25 -264 0 c-144 0 -266 -3 -269 -7z"/>
<path d="M14528 1644 c-5 -4 -8 -220 -8 -480 0 -421 2 -473 16 -478 25 -9 291
-6 373 4 230 30 350 191 351 470 0 188 -37 298 -131 384 -95 89 -134 99 -384
104 -115 2 -213 0 -217 -4z m429 -123 c107 -47 169 -154 180 -306 11 -156 -31
-292 -109 -359 -63 -54 -122 -70 -268 -70 l-125 -1 -3 370 c-1 203 0 376 3
383 4 11 33 13 138 10 111 -3 140 -7 184 -27z"/>
<path d="M15627 1643 c-4 -3 -7 -217 -7 -474 0 -453 1 -469 19 -479 12 -6 115
-10 264 -10 270 0 271 0 265 62 l-3 33 -215 5 -215 5 0 170 0 170 193 3 193 2
-3 48 -3 47 -193 3 -193 2 3 158 3 157 212 3 213 2 6 25 c3 14 3 36 0 50 l-6
25 -264 0 c-144 0 -266 -3 -269 -7z"/>
<path d="M16976 1635 c-3 -9 -6 -222 -6 -474 0 -342 3 -460 12 -469 7 -7 26
-12 44 -12 68 0 64 -27 64 393 0 321 2 379 14 367 7 -8 71 -116 141 -240 71
-124 135 -231 144 -237 20 -17 76 -16 93 1 7 7 74 119 148 249 l135 236 3
-371 c1 -254 6 -375 13 -385 15 -17 83 -17 98 1 8 9 10 144 9 482 l-3 469 -66
3 c-53 2 -68 -1 -81 -15 -15 -18 -236 -408 -281 -498 l-25 -50 -12 30 c-21 54
-39 88 -168 310 l-127 220 -71 3 c-59 2 -73 0 -78 -13z"/>
<path d="M18274 1637 c-3 -8 -4 -176 -2 -373 3 -353 3 -360 27 -412 28 -62 74
-105 151 -141 47 -22 72 -26 172 -29 98 -3 129 -1 186 17 79 24 150 79 185
145 22 40 22 48 22 421 l0 380 -50 0 -50 0 -5 -355 c-5 -387 -5 -384 -67 -441
-56 -52 -91 -64 -193 -64 -83 0 -102 3 -145 26 -30 15 -62 42 -80 68 l-30 43
-5 361 -5 362 -53 3 c-38 2 -54 -1 -58 -11z"/>
<path d="M19417 1643 c-4 -3 -7 -219 -7 -479 0 -517 -4 -484 58 -484 53 0 52
-10 54 393 l3 378 244 -372 c135 -204 251 -378 259 -385 14 -15 89 -19 110 -6
10 7 12 110 10 483 l-3 474 -55 0 -55 0 -3 -380 -2 -380 -29 50 c-16 28 -128
200 -250 383 l-221 332 -53 0 c-30 0 -57 -3 -60 -7z"/>
<path d="M20557 1644 c-4 -4 -7 -217 -7 -474 0 -349 3 -469 12 -478 16 -16 83
-15 97 2 8 9 10 144 9 482 l-3 469 -50 3 c-28 2 -54 0 -58 -4z"/>
<path d="M22087 1644 c-4 -4 -7 -220 -7 -480 l0 -474 24 -6 c13 -3 37 -4 52
-2 l29 3 0 480 0 480 -45 3 c-25 2 -49 0 -53 -4z"/>
<path d="M22596 1635 c-3 -9 -6 -225 -6 -480 0 -413 2 -464 16 -469 26 -10 79
-7 92 6 9 9 12 69 12 210 l0 198 140 0 c117 0 148 3 195 21 118 44 168 121
169 259 1 133 -39 198 -154 246 -38 15 -79 19 -251 22 -185 3 -207 2 -213 -13z
m421 -113 c54 -28 77 -71 77 -142 0 -77 -30 -131 -87 -159 -37 -18 -62 -21
-170 -21 l-127 0 0 176 0 176 133 -4 c113 -3 138 -7 174 -26z"/>
<path d="M23547 1644 c-4 -4 -7 -220 -7 -480 0 -517 -4 -484 58 -484 54 0 52
-19 50 491 l-3 474 -45 3 c-25 2 -49 0 -53 -4z"/>
</g>
</svg>
